<svg width="301" height="301" viewBox="0 0 301 301" fill="none" xmlns="http://www.w3.org/2000/svg">
<path d="M53.8963 287.772C57.2852 269.128 60.7891 249.761 64.3073 230.41C66.2172 219.868 67.8685 209.266 70.2092 198.83C71.2862 194.056 70.3815 191.134 66.9351 187.806C46.8024 168.334 26.9713 148.5 6.91041 128.953C2.64549 124.796 -0.901426 120.504 1.20949 114.059C3.33477 107.538 8.80592 106.815 14.5068 106.107C41.9201 102.689 69.3189 99.1345 96.6747 95.1889C99.2738 94.8124 102.519 91.9661 103.711 89.3758C115.716 63.3226 127.391 37.1037 139.037 10.8848C141.463 5.41809 144.048 0.478517 150.74 0.614054C157.044 0.749591 159.485 5.49339 161.812 10.704C173.371 36.6971 185.204 62.5696 196.62 88.6379C198.559 93.0654 200.943 95.1136 205.495 95.6708C233.382 99.1194 261.269 102.568 289.084 106.664C292.89 107.222 297.442 110.58 299.466 114.044C302.152 118.652 299.624 123.501 295.762 127.281C275.212 147.386 254.807 167.671 234.186 187.685C230.84 190.923 229.763 193.77 230.711 198.664C236.225 227.277 241.265 255.981 246.564 284.64C247.526 289.865 247.526 294.73 243.19 298.269C238.58 302.034 233.813 300.738 229.16 298.043C205.423 284.293 181.571 270.725 157.992 256.674C152.621 253.466 148.643 253.27 143.129 256.568C119.378 270.8 95.3392 284.504 71.3006 298.224C61.8804 303.6 53.4942 298.736 53.8963 287.772ZM78.9545 268.481C100.049 256.282 119.636 245.5 138.663 233.738C147.121 228.512 154 228.572 162.4 233.798C179.79 244.611 197.712 254.475 215.446 264.701C217.169 265.695 219.007 266.417 221.52 267.622C221.262 265.092 221.204 263.616 220.946 262.186C216.954 240.379 213.22 218.498 208.769 196.797C206.959 187.972 208.726 181.767 215.259 175.683C230.582 161.421 245.229 146.377 260.264 131.784C261.944 130.157 264.385 129.389 266.467 128.215C265.821 127.371 265.16 126.528 264.514 125.685C261.714 125.263 258.914 124.811 256.099 124.45C235.55 121.724 215.03 118.863 194.452 116.408C187.817 115.61 183.797 112.523 181.025 106.062C172.223 85.5959 162.96 65.3406 153.842 45.0251C152.908 42.9468 151.774 40.974 150.28 38.0524C141.894 56.7264 134.126 74.3764 126.07 91.8908C113.203 119.857 120.986 113.893 90.0404 118.426C72.1622 121.031 54.2409 123.23 35.3863 125.73C37.3249 127.959 38.488 129.465 39.8379 130.79C55.7918 146.542 71.6883 162.37 87.8289 177.942C92.3523 182.294 94.1042 186.948 92.7113 193.242C91.261 199.808 90.2845 206.48 89.0782 213.091C85.8185 230.922 82.5588 248.768 78.9545 268.481Z" fill="white"/>
</svg>
